<?xml version="1.0" encoding="iso-8859-1"?>
<!-- Generator: Adobe Illustrator 19.0.0, SVG Export Plug-In . SVG Version: 6.00 Build 0)  -->
<svg version="1.1" id="Capa_1" xmlns="http://www.w3.org/2000/svg" xmlns:xlink="http://www.w3.org/1999/xlink" x="0px" y="0px"
	 viewBox="0 0 51.734 51.734" style="enable-background:new 0 0 51.734 51.734;" xml:space="preserve">
<path style="fill:#E4C05C;" d="M29.882,22.364c3.03-6.001,2.891-12.665-2.121-17.678c-6.572-6.572-17.44-6.232-23.567,1.022
	c-5.325,6.304-4.861,15.876,1.009,21.675c4.465,4.411,10.621,5.383,16.193,3.466l2.828,2.885h5.027v4h4v4h5v5h3v2.776
	c0,0.807,0.039,1.046,0.551,1.557c0.388,0.388,0.902,0.625,1.449,0.667h8v-9L29.882,22.364z M15.74,15.293
	c-1.953,1.953-5.118,1.953-7.071,0c-1.953-1.953-1.953-5.118,0-7.071c1.953-1.953,5.118-1.953,7.071,0
	C17.692,10.174,17.692,13.34,15.74,15.293z"/>
<path style="fill:#DDA86F;" d="M27.252,26.734l-5.611,4.364l2.584,2.636h5.027v4h4v4h5v5h3v2.776c0,0.807,0.039,1.046,0.551,1.557
	c0.388,0.388,0.902,0.625,1.449,0.667h8v-1L27.252,26.734z"/>
<path style="fill:#BC9C4D;" d="M12.252,4.734c-3.866,0-7,3.134-7,7c0,3.866,3.134,7,7,7s7-3.134,7-7
	C19.252,7.868,16.118,4.734,12.252,4.734z M12.252,16.734c-2.761,0-5-2.239-5-5s2.239-5,5-5s5,2.239,5,5
	S15.014,16.734,12.252,16.734z"/>
<g>
</g>
<g>
</g>
<g>
</g>
<g>
</g>
<g>
</g>
<g>
</g>
<g>
</g>
<g>
</g>
<g>
</g>
<g>
</g>
<g>
</g>
<g>
</g>
<g>
</g>
<g>
</g>
<g>
</g>
</svg>
